inDegrees=no
num_controls=7
num_derivatives=13
num_iterations=114
num_multipliers=7
num_parameters=0
num_slacks=7
num_states=26
objective=0.408750
objective_accelerations=0.042386
objective_balance=0.005051
objective_effort=0.062969
objective_height=0.292586
objective_ligament=0.005759
solver_duration=1285.406832
status=Solve_Succeeded
success=true
DataType=double
version=3
OpenSimVersion=4.5
endheader
time	/jointset/ground_pelvis/pelvis_tilt/value	/jointset/ground_pelvis/pelvis_tx/value	/jointset/ground_pelvis/pelvis_ty/value	/jointset/hip_r/hip_flexion_r/value	/jointset/hip_r/hip_adduction_r/value	/jointset/hip_r/hip_rotation_r/value	/jointset/back/lumbar_extension/value	/jointset/patellofemoral_r/patellar_flexion_r/value	/jointset/knee_r/knee_flexion_r/value	/jointset/knee_r/knee_adduction_r/value	/jointset/knee_r/knee_rotation_r/value	/jointset/ankle_r/ankle_angle_r/value	/jointset/subtalar_r/subtalar_angle_r/value	/jointset/ground_pelvis/pelvis_tilt/speed	/jointset/ground_pelvis/pelvis_tx/speed	/jointset/ground_pelvis/pelvis_ty/speed	/jointset/hip_r/hip_flexion_r/speed	/jointset/hip_r/hip_adduction_r/speed	/jointset/hip_r/hip_rotation_r/speed	/jointset/back/lumbar_extension/speed	/jointset/patellofemoral_r/patellar_flexion_r/speed	/jointset/knee_r/knee_flexion_r/speed	/jointset/knee_r/knee_adduction_r/speed	/jointset/knee_r/knee_rotation_r/speed	/jointset/ankle_r/ankle_angle_r/speed	/jointset/subtalar_r/subtalar_angle_r/speed	/forceset/tau_hip_flexion_r	/forceset/tau_hip_adduction_r	/forceset/tau_hip_rotation_r	/forceset/tau_knee_flexion_r	/forceset/tau_ankle_angle_r	/forceset/tau_subtalar_angle_r	/forceset/tau_lumbar_extension	lambda_cid13_p0	lambda_cid14_p0	lambda_cid14_p1	lambda_cid14_p2	lambda_cid14_p3	lambda_cid14_p4	lambda_cid14_p5	/jointset/ground_pelvis/pelvis_tilt/accel	/jointset/ground_pelvis/pelvis_tx/accel	/jointset/ground_pelvis/pelvis_ty/accel	/jointset/hip_r/hip_flexion_r/accel	/jointset/hip_r/hip_adduction_r/accel	/jointset/hip_r/hip_rotation_r/accel	/jointset/back/lumbar_extension/accel	/jointset/patellofemoral_r/patellar_flexion_r/accel	/jointset/knee_r/knee_flexion_r/accel	/jointset/knee_r/knee_adduction_r/accel	/jointset/knee_r/knee_rotation_r/accel	/jointset/ankle_r/ankle_angle_r/accel	/jointset/subtalar_r/subtalar_angle_r/accel	gamma_cid13_p0	gamma_cid14_p0	gamma_cid14_p1	gamma_cid14_p2	gamma_cid14_p3	gamma_cid14_p4	gamma_cid14_p5
0	-0.006495329907960805	0.09625193879742647	0.9427239803171347	0.1762555222360518	-0.2321576042264231	-0.2614970626718383	-0.038598046466844	0.07317863873451018	0.07317863873451017	0.1745316015033249	0.1743954605380667	0.03247278518263602	-0.003459199222676574	0	0	0	0	0	0	0	0	0	0	0	0	0	0.2556066460229328	-0.1373997567772152	-0.03649588918693646	-0.3567612721479572	0.2810662100860477	-0.144405991916835	-0.1684590067558835	-39.07357289043034	41.48498230904452	-45.41141464224928	-3.768747961959343	18.12386897859179	-641.9375467424635	44.41846022015934	-3.692482750115883	-3.799302930803392	-1.515836988017768	23.73581438185376	0.906538808421182	6.774564205041727	-10.59813361523616	25.59164305870829	25.59164305870714	-8.747983149424966	0.3688391249868881	8.015313105028081	2.755677075109704	1.027759732298695e-06	6.26053040563324e-07	-6.89764052633286e-06	3.479316638057536e-06	2.910041726964696e-07	1.565507116221461e-06	-4.592272672384342e-06
0.01	-0.006663608437954026	0.09606600183907849	0.9426511109404969	0.1773990502203933	-0.2321136812273503	-0.2611415528365927	-0.0391320407007183	0.07441922283687263	0.07441922283687261	0.174105492104926	0.1743871011524775	0.0328620083942287	-0.003325840832849164	-0.03368960689815456	-0.03685277856496421	-0.01459541425601516	0.2271246855935619	0.008309189007912613	0.07044961414078632	-0.1054697028617101	0.246250702691288	0.2462507026912849	-0.0836429161288743	-0.001563576584409698	0.07715030039452704	0.02601596178468097	0.2467786877284798	-0.1606142056267128	-0.03488760655561203	-0.3511020303264852	0.2716444082125746	-0.1197246635301326	-0.1601981766836836	-39.11447913187233	39.4660923074839	-35.20441022986704	-5.21487654955175	16.97535167992776	-642.3605074120454	63.95533399762468	-3.212255509823853	-3.578015152813101	-1.43431138224163	21.96371005907929	0.7213115156683014	7.083057052272678	-10.32201703466593	23.86166065521207	23.86166065521238	-7.936290274570437	-0.4018691593711128	7.460865571640839	2.425518043486476	1.071735066679172e-06	5.072103339032288e-07	-7.297456872294655e-06	2.749470589169828e-06	4.806872089230869e-07	4.015167786900599e-07	-4.048057228166116e-06
0.02	-0.007169794206960537	0.09552158712838679	0.9424317038737294	0.1807664079428649	-0.23200102582446	-0.2601009674532042	-0.04068085764581519	0.07806628932232257	0.07806628932232258	0.1728901846592483	0.1743665233792009	0.03400193002276179	-0.002952130362507107	-0.06758144780265347	-0.07169555046873506	-0.02930753802596005	0.4447659476259994	0.01374648076350518	0.1370151096285965	-0.2029645422445199	0.4812964766174964	0.4812964766174989	-0.1578396094558196	-0.002443677537467952	0.1501396833880871	0.04807041610292928	0.2379507294340268	-0.1838286544762101	-0.03327932392428742	-0.3454427885050132	0.2622226063391017	-0.09504333514342998	-0.1519373466114838	-39.23398047340302	37.70731055249749	-25.00058606361022	-6.604811910192598	15.50557083279773	-638.6174601458172	82.88498478749331	-3.732929551384752	-3.397301598564719	-1.539178890803715	21.8391296696289	0.332159357957172	5.9977404744465	-9.003160919456093	23.35065730569237	23.35065730569296	-6.858738589039165	0.5055342512571771	7.18312962483468	1.963375581823173	1.115710401059649e-06	3.883676272431337e-07	-7.697273218256451e-06	2.01962454028212e-06	6.70370245149704e-07	-7.624735588413412e-07	-3.503841783947889e-06
0.03	-0.008016765316366805	0.09463774316993906	0.9420630222328311	0.1862704733670064	-0.2318441195404512	-0.2584211430657484	-0.04316685447741147	0.08401678191072243	0.08401678191072244	0.1709713406638766	0.174346637601662	0.03585438977106322	-0.002372109191771294	-0.1016334830890166	-0.1048305015695844	-0.04454998420007891	0.6547249172385111	0.01756873733122439	0.1983405499977818	-0.2934236049464793	0.7074099246192782	0.7074099246192818	-0.2251825031426977	-0.001605139635430905	0.2198924542507649	0.06778097728958259	0.2280011905902741	-0.1688073016171476	-0.03120165237588857	-0.338287086664893	0.2571376685852959	-0.1030557911446408	-0.1438455119841571	-39.42578130868158	36.17975875324245	-28.83279119898425	-5.89685066802255	15.14727289551973	-633.0901887938778	73.09209355288904	-3.214362377331518	-3.235046077717801	-1.535113785367187	20.37600946656693	0.3965192992039706	6.109095078133491	-8.945596076378385	22.03264776118316	22.03264776118301	-6.5610743340899	-0.1370988303457929	6.802559731013084	1.950990327110421	1.14494249998645e-06	3.933273825884188e-07	-7.872364037526064e-06	2.379701310074359e-06	7.071442897539384e-07	-8.121836832891775e-07	-3.885097917650908e-06
0.04	-0.009198861150653373	0.09342985885810827	0.9415382488692613	0.193834474259174	-0.2316511385921604	-0.256146234422605	-0.04653310536219171	0.09218660082189253	0.09218660082189259	0.1684012658165208	0.1743331147251389	0.03839061901079717	-0.001599763621164147	-0.1346063927787108	-0.1365036211453441	-0.06052588256023629	0.8567530412312081	0.02096141361993056	0.2560319607661251	-0.3790153528813082	0.9251617411715429	0.925161741171547	-0.2880857798526865	-0.001171097334304349	0.2868935816745929	0.0865352960771963	0.2180516517464174	-0.1537859487580849	-0.02912398082748967	-0.3311313848247724	0.2520527308314902	-0.1110682471458514	-0.1357536773568304	-39.68136619105911	34.86488153745132	-32.68682172645348	-5.117925262414542	14.54160211769498	-624.1124838651152	62.72156298729774	-3.517104432050984	-3.104935293546784	-1.68586932801142	20.25296054566599	0.2462433021545656	5.270934554278117	-8.029697966029991	21.67833101578896	21.67833101578948	-5.970815193661304	0.4246351310750751	6.632800937064721	1.772127102015249	1.173870614677092e-06	4.008397660162892e-07	-8.042821340781407e-06	2.762250715303299e-06	7.407655716443093e-07	-8.389189579827132e-07	-4.285435939558488e-06
0.05	-0.01070864351780603	0.09191277738564232	0.9408486163712327	0.2033843185264101	-0.23142609902489	-0.2533200269567965	-0.05072740513898593	0.1024962774973669	0.1024962774973669	0.1652243553635365	0.1743288272727435	0.04158437583293102	-0.0006438650365637818	-0.1671278066057428	-0.166628479171183	-0.07759886303512746	1.051753265799501	0.02401384293909914	0.3085359735732986	-0.4590669043031659	1.135267975573268	1.135267975573273	-0.3465188836842505	0.0001635860250803864	0.3513803242759297	0.1045319372270182	0.2079402173177457	-0.1564611469938882	-0.02671323682914535	-0.3263333157448645	0.2465714329351614	-0.1023353709435816	-0.1277151664986677	-39.9908035523307	34.11575248460974	-29.26187744782122	-5.393733096281622	12.83159181489732	-614.5252716107473	66.82008973423895	-3.0862240569387	-2.923483505801573	-1.747917305513843	18.90424164527567	0.3291193809624084	5.139778514416416	-7.876229004107821	20.45069189196879	20.45069189196854	-5.663910774525531	-0.03385501620039318	6.285159469495749	1.795619023809348	1.068139440352575e-06	4.656721239458816e-07	-6.987040521298795e-06	3.829808796224495e-06	5.915822481855351e-07	-2.306845133040446e-07	-4.964712975461874e-06
0.06	-0.0125369528630109	0.09010300284317815	0.9399822730887982	0.214840302685902	-0.231171659837595	-0.2499888505888202	-0.05569888948476756	0.1148618009647794	0.1148618009647793	0.1614862433129122	0.1743335386630278	0.04540870979064374	0.0004884372400035337	-0.1983117883891508	-0.1950422351449871	-0.09586803944145246	1.237981019682383	0.02684133762484389	0.35702574119965	-0.5344522666787899	1.336331099559172	1.336331099559175	-0.4003260993806775	0.0006286712016421439	0.4130090087903698	0.1218160344705876	0.1978287828890742	-0.1591363452296908	-0.02430249283080104	-0.3215352466649566	0.2410901350388326	-0.09360249474131173	-0.119676655640505	-40.34215652480854	33.53075045330883	-25.83179380152823	-5.643394348597917	10.95250025157628	-602.307571974929	70.44933474214614	-3.249618023326194	-2.762714883139811	-1.925108514298043	18.49846640858373	0.2012563754698022	4.468085518113698	-7.09646015678324	19.86970893262471	19.8697089326247	-5.045637566633874	0.2507154945104456	6.061189319685376	1.629618320764753	9.5673840122742e-07	5.329179544860728e-07	-5.879628622964059e-06	4.926209347701152e-06	4.3470188871206e-07	4.042854985060849e-07	-5.655734811954555e-06
0.07000000000000001	-0.01467461116888337	0.08801734540368632	0.9389259923878432	0.2281222302981591	-0.2308899133671856	-0.246201177010473	-0.06139701288700387	0.1291982696931596	0.1291982696931596	0.1572323370382865	0.1743473002898899	0.04983618817485618	0.001790662133447607	-0.2290424865482652	-0.2218141531442985	-0.1156507351601031	1.417003225748508	0.02942504422428328	0.3998620121129887	-0.6043863139359986	1.529432546588083	1.529432546588085	-0.4495636011051671	0.00191880951409279	0.4719441177445061	0.1384525054499381	0.1871086145564918	-0.1509851150984384	-0.02179969086577171	-0.3165568197258735	0.236788312604318	-0.09320302992474622	-0.1114354589166881	-40.72253815177523	33.00710064903603	-26.02088497532404	-5.303824972381871	9.374266375303838	-589.9383125094208	66.46378441421228	-2.958110054595108	-2.593080278166802	-2.044156708522692	17.39398526837745	0.2745216359484812	4.095325693540881	-6.82396203531809	18.80065766134297	18.80065766134294	-4.729390875823049	0.03845344778848192	5.728345284958614	1.653871442010224	6.669895041304075e-07	5.63197524031159e-07	-3.372598864255101e-06	5.703469534283399e-06	1.318666501957179e-07	1.165581690672738e-06	-5.613412142150066e-06
0.08	-0.0171142393248252	0.08567223878023336	0.9376640234081267	0.2431523574836276	-0.2305848110640283	-0.242004355159873	-0.06777089376683798	0.1454198119064926	0.1454198119064926	0.1525127388663225	0.1743680213895118	0.05483675236894616	0.00325389372778319	-0.2587057584030229	-0.2469320719372097	-0.1370056951937185	1.587620934324653	0.03151250417442163	0.4388553956502038	-0.6696037621983435	1.713345796549743	1.713345796549746	-0.4934644788483192	0.002020565753587741	0.5276261707658768	0.1540173746488898	0.1763884462239119	-0.142833884967186	-0.01929688890074237	-0.3115783927867905	0.2324864901698034	-0.09280356510818075	-0.1031942621928712	-41.11781998483446	32.59583083708844	-26.227127633143	-4.919454029715014	7.739250581243993	-575.7039991373068	62.00867755316839	-3.036132762454843	-2.431915041859768	-2.239561377291	16.81756691058752	0.1020070456095937	3.699508042888918	-6.153140357810416	18.03206951917465	18.03206951917489	-3.978312770366415	0.01303907991930563	5.410578133132282	1.415297964685017	3.65734293615856e-07	5.910921735120449e-07	-7.75271179070389e-07	6.460140019904715e-06	-1.803850321298412e-07	1.935027958991424e-06	-5.523776923552212e-06
0.09	-0.01984859456359938	0.08308418374310299	0.936179793417251	0.2598530527704883	-0.2302606648231604	-0.2374454141832515	-0.07477008949349527	0.1634397305336901	0.1634397305336902	0.1473781340727578	0.1743931516489977	0.06037944812929887	0.004868688658977224	-0.2879975012426908	-0.2703911261257372	-0.160130544454211	1.751198881357446	0.03329367881408515	0.4722282448303854	-0.7294657638466475	1.889189726842678	1.889189726842677	-0.5327546908912546	0.002872383697989163	0.5804178679537889	0.1688471004912861	0.1660244926562605	-0.1384247345743567	-0.01703056603876579	-0.3079246271117378	0.2290055880686515	-0.08795480174565118	-0.09528654369742029	-41.51351156564922	32.60174707772514	-24.43813037782864	-4.841597025430467	5.519581798793065	-561.9580566813917	61.42610849679644	-2.85049015216397	-2.259770326377896	-2.392083480258048	15.9300953992443	0.2137976114408186	3.051519618142076	-5.787287175370484	17.14325619920292	17.14325619920238	-3.798394393725311	0.1023570916144051	5.13908144355042	1.503318610044825	-7.327241645749594e-09	3.81833771679077e-07	1.81834168472807e-06	4.877086294159129e-06	-3.388548698451186e-07	1.643995322149723e-06	-3.461260730861072e-06
